<?xml version="1.0" encoding="UTF-8"?>
<svg width="770px" height="534px" viewBox="0 0 770 534" version="1.1" xmlns="http://www.w3.org/2000/svg" xmlns:xlink="http://www.w3.org/1999/xlink">
    <!-- Generator: Sketch 50.2 (55047) - http://www.bohemiancoding.com/sketch -->
    <title>sheme SOFTAWARE</title>
    <desc>Created with Sketch.</desc>
    <defs>
        <path d="M22.3439987,0.00387838455 C21.9461844,0.02407288 21.5564109,0.123467594 21.1975443,0.296231513 L5.55334324,7.8288611 C4.7331177,8.22359882 4.13736076,8.97014408 3.93470165,9.85718694 L0.0751718127,26.7773763 C-0.104884265,27.5649885 0.0416231706,28.391905 0.481332806,29.0698281 C0.534105919,29.1518577 0.590862904,29.2312576 0.651400217,29.307743 L11.4796923,42.8749445 C12.0474668,43.5860962 12.908321,44.0001787 13.8186194,43.9999999 L31.1835025,43.9959675 C32.0934604,43.9966358 32.954254,43.5833245 33.5224296,42.8729282 L44.3467201,29.3037106 C44.9147983,28.5922025 45.1276392,27.6607974 44.9249493,26.7733438 L41.0594171,9.85315449 C40.856758,8.96611162 40.261001,8.21956637 39.4407755,7.82482864 L23.7945737,0.296231513 C23.3431735,0.078908206 22.8443896,-0.0216181496 22.3439987,0.00387838455 Z" id="path-1"></path>
    </defs>
    <g id="Page-1" stroke="none" stroke-width="1" fill="none" fill-rule="evenodd">
        <g id="sheme-SOFTAWARE">
            <g id="lines" transform="translate(107.000000, 40.000000)">
                <path d="M200.5,204.5 L200.5,258.5" id="Line" stroke="#D9D9D9"></path>
                <path d="M100.5,364.5 L100.5,418.5" id="Line" stroke="#D9D9D9"></path>
                <path d="M100.5,106.5 L100.5,342.5" id="Line" stroke="#D9D9D9"></path>
                <path d="M317,108 L317,344" id="Line" stroke="#D9D9D9"></path>
                <path d="M555,107 L555,343" id="Line" stroke="#D9D9D9"></path>
                <path d="M200,108 L200,172" id="Line-2" stroke="#D9D9D9"></path>
                <path d="M445,107 L445,171" id="Line-2" stroke="#D9D9D9"></path>
                <path d="M446,0 L446,69" id="Line-2" stroke="#D9D9D9"></path>
                <path d="M100,0 L100,69" id="Line-2" stroke="#D9D9D9"></path>
                <path d="M0.5,109.5 L0.5,186.5" id="Line" stroke="#D1D1D1"></path>
                <path d="M0.5,169.5 L0.5,246.5" id="Line" stroke="#D1D1D1"></path>
            </g>
            <g id="K8s" transform="translate(589.000000, 377.000000)">
                <g id="2">
                    <g id="Rectangle-9">
                        <g id="path-1-link" fill="#000000" fill-rule="nonzero">
                            <rect id="path-1" x="0" y="0" width="150" height="55" rx="4"></rect>
                        </g>
                        <g id="path-1-link" fill="#F4F4F4">
                            <rect id="path-1" x="0" y="0" width="150" height="55" rx="4"></rect>
                        </g>
                    </g>
                    <text id="Kubernetes" fill="#4A4A4A" font-family=".AppleSystemUIFont" font-size="15" font-weight="normal">
                        <tspan x="13.0078125" y="33">Kubernetes</tspan>
                    </text>
                </g>
                <g id="kubernetes-logo" transform="translate(101.000000, 6.000000)">
                    <g id="path3055" fill="#326CE5" fill-rule="nonzero" stroke="#FFFFFF">
                        <path d="M22.3439987,0.00387838455 C21.9461844,0.02407288 21.5564109,0.123467594 21.1975443,0.296231513 L5.55334324,7.8288611 C4.7331177,8.22359882 4.13736076,8.97014408 3.93470165,9.85718694 L0.0751718127,26.7773763 C-0.104884265,27.5649885 0.0416231706,28.391905 0.481332806,29.0698281 C0.534105919,29.1518577 0.590862904,29.2312576 0.651400217,29.307743 L11.4796923,42.8749445 C12.0474668,43.5860962 12.908321,44.0001787 13.8186194,43.9999999 L31.1835025,43.9959675 C32.0934604,43.9966358 32.954254,43.5833245 33.5224296,42.8729282 L44.3467201,29.3037106 C44.9147983,28.5922025 45.1276392,27.6607974 44.9249493,26.7733438 L41.0594171,9.85315449 C40.856758,8.96611162 40.261001,8.21956637 39.4407755,7.82482864 L23.7945737,0.296231513 C23.3431735,0.078908206 22.8443896,-0.0216181496 22.3439987,0.00387838455 Z" id="path-3"></path>
                    </g>
                    <g id="path3059-Clipped">
                        <mask id="mask-2" fill="white">
                            <use xlink:href="#path-1"></use>
                        </mask>
                        <g id="path-3"></g>
                        <path d="M22.4990219,6 C21.9817308,6.00005213 21.5622983,6.46255734 21.5623598,7.03307447 C21.5623605,7.04183049 21.5641659,7.05019744 21.564358,7.05890133 C21.5635959,7.13642069 21.5598236,7.22981063 21.5623598,7.29730313 C21.5746962,7.62636119 21.6469572,7.87820821 21.6904504,8.18137647 C21.769244,8.83025277 21.8352676,9.36813173 21.7945239,9.86806921 C21.7548998,10.056591 21.6150127,10.2290038 21.4903089,10.3488462 L21.4682933,10.7422091 C20.9061796,10.7884381 20.3403057,10.8730911 19.7750966,11.0004778 C17.3430025,11.5486226 15.2490124,12.792183 13.6547707,14.4712106 C13.5513235,14.4011567 13.3703437,14.2722793 13.3165284,14.2328088 C13.1492953,14.2552262 12.9802773,14.3064457 12.7601351,14.1791684 C12.3409646,13.8990857 11.9591933,13.5124743 11.4972425,13.0467599 C11.2855742,12.8239852 11.1322921,12.6118508 10.8808068,12.397115 C10.8236963,12.3483494 10.7365397,12.2823928 10.6726597,12.2322204 C10.4760484,12.076619 10.244152,11.9954702 10.0201985,11.9878585 C9.73225802,11.978072 9.4550669,12.0898214 9.27367085,12.315661 C8.95118948,12.7171538 9.05443621,13.3308109 9.50383353,13.6864714 C9.50839355,13.690076 9.51324947,13.6928783 9.51784343,13.6964048 C9.57959716,13.7460953 9.65521797,13.8097652 9.71198065,13.851366 C9.97884896,14.046954 10.2226264,14.1470764 10.4885295,14.3023427 C11.0487335,14.6457564 11.5131494,14.9305066 11.8815141,15.27383 C12.0253611,15.4260365 12.0505027,15.6942386 12.0696471,15.8102341 L12.3698593,16.0764494 C10.7627445,18.4772306 10.0189586,21.4426807 10.4585115,24.4642194 L10.0662342,24.5774603 C9.96284597,24.7099869 9.81675167,24.9185173 9.6639467,24.9807567 C9.18199773,25.1314399 8.63959132,25.1867733 7.98475983,25.2549187 C7.67732269,25.2802942 7.41205552,25.2651509 7.08612467,25.3264393 C7.01438884,25.3399284 6.91443724,25.3657768 6.83594784,25.384053 C6.83321951,25.3846252 6.83067051,25.3854262 6.82794218,25.3860365 C6.82366396,25.3870219 6.81804335,25.3890817 6.81393228,25.3900099 C6.2618531,25.5224208 5.90719603,26.0261295 6.02137209,26.5224185 C6.13557505,27.0188238 6.67483492,27.3207002 7.23022652,27.2018636 C7.23423575,27.2009545 7.24005747,27.2008019 7.24423642,27.1998801 C7.25050645,27.198456 7.25602652,27.1954363 7.26224915,27.1939232 C7.33967028,27.1770533 7.43669373,27.1582837 7.50442032,27.1402828 C7.82486057,27.0551174 8.05693501,26.9299832 8.34501447,26.8204271 C8.96477668,26.599777 9.47808605,26.4154479 9.9781688,26.3436235 C10.1870319,26.3273854 10.407087,26.4715441 10.5165493,26.5323582 L10.9248379,26.4628244 C11.8643935,29.3543407 13.8334,31.6914539 16.326656,33.1579416 L16.1565357,33.5632246 C16.217854,33.7205965 16.2854851,33.933523 16.2398087,34.0889368 C16.0580047,34.5569164 15.746598,35.0508703 15.3919953,35.60156 C15.2202996,35.8559773 15.0445799,36.0534179 14.8896403,36.344579 C14.8525645,36.4142489 14.8053452,36.5212709 14.7695554,36.5949009 C14.5288195,37.1061844 14.7054051,37.6950584 15.1678369,37.9160442 C15.6331738,38.1384177 16.2107802,37.90388 16.4607508,37.3915602 C16.461135,37.3908355 16.4623967,37.3903015 16.462749,37.3895767 C16.4630052,37.3890045 16.4624928,37.3881463 16.462749,37.3875932 C16.4983537,37.314957 16.5487957,37.2194805 16.578831,37.1511781 C16.7115411,36.8493919 16.7556991,36.5907711 16.849022,36.2988917 C17.0968528,35.6809453 17.2330163,35.032563 17.5741797,34.6285463 C17.6676012,34.5179132 17.8199092,34.4753652 17.9778198,34.4333976 L18.1899698,34.0519547 C20.3635535,34.880118 22.796532,35.1023505 25.2269436,34.5545852 C25.7813816,34.4296264 26.316638,34.2679022 26.8340795,34.0738082 C26.8937044,34.1787895 27.0045123,34.3805963 27.034221,34.4314109 C27.1946922,34.483235 27.3698464,34.509997 27.5125591,34.7194797 C27.7678045,35.1523526 27.9423605,35.6644511 28.1550132,36.2829982 C28.2483515,36.5748726 28.2944794,36.8335048 28.4272056,37.1352846 C28.4574567,37.2040683 28.5076464,37.3008855 28.5432876,37.3736864 C28.7927324,37.8876705 29.3721692,38.12301 29.8382029,37.9001571 C30.3005777,37.6790537 30.477358,37.0902331 30.2364844,36.5790138 C30.2006901,36.5053864 30.1514771,36.3983599 30.1143981,36.3286919 C29.9594431,36.0375391 29.7837516,35.8420674 29.612043,35.5876596 C29.2574109,35.0369883 28.963285,34.5795252 28.781456,34.1115551 C28.7054272,33.8701927 28.794283,33.7200841 28.8535069,33.563231 C28.8180399,33.5228763 28.7421443,33.2949438 28.6973966,33.1877482 C31.2885016,31.6690867 33.1996867,29.2448182 34.0972132,26.4449506 C34.2184125,26.4638587 34.4290663,26.5008549 34.4974961,26.5144844 C34.6383663,26.4222579 34.7678914,26.3019241 35.0218668,26.3217763 C35.5219527,26.3935747 36.0352474,26.5779616 36.6550211,26.7985799 C36.9431063,26.9081214 37.1751711,27.0352735 37.4956152,27.1204224 C37.5633425,27.1384195 37.660364,27.1552099 37.7377864,27.1720761 C37.7440116,27.1735891 37.7495259,27.1766152 37.7557991,27.1780329 C37.7599813,27.1789611 37.7657998,27.1791073 37.769809,27.1800164 C38.3252327,27.2987056 38.8645886,26.9970059 38.9786635,26.5005713 C39.0927114,26.0042531 38.7382183,25.5004274 38.1861033,25.3681628 C38.105795,25.350036 37.991902,25.3192503 37.9139109,25.3045889 C37.5879768,25.2433178 37.3227141,25.258428 37.0152757,25.2330684 C36.360441,25.1649567 35.8180455,25.1095642 35.3360889,24.9589063 C35.1395813,24.8832357 34.9997852,24.6511302 34.9317999,24.55561 L34.5535325,24.4463425 C34.7496558,23.0379015 34.696773,21.5720852 34.3573939,20.105443 C34.0148548,18.6251452 33.4095002,17.271269 32.6021533,16.0784393 C32.6991851,15.9908797 32.8824275,15.8298078 32.9343881,15.7824237 C32.9495771,15.6155952 32.9365272,15.4406808 33.1105126,15.2559531 C33.4788587,14.9126106 33.9433118,14.6279086 34.5034972,14.2844657 C34.769392,14.1291854 35.0151894,14.029091 35.2820475,13.833489 C35.3423941,13.7892569 35.424798,13.7192093 35.4881932,13.6685944 C35.9374951,13.3128144 36.040941,12.6991942 35.7183558,12.2977841 C35.3957707,11.8963739 34.7706703,11.8585634 34.3213684,12.2143434 C34.2574154,12.2646208 34.170636,12.330208 34.1132213,12.379238 C33.8617476,12.5939878 33.706441,12.8060974 33.4947842,13.0288829 C33.0328583,13.4946215 32.6510474,13.8831732 32.2318916,14.1632782 C32.0502586,14.2682423 31.7842177,14.2319239 31.6634866,14.2248653 L31.3072348,14.4771739 C29.2757958,12.3626726 26.5099458,11.0107824 23.5317518,10.7481692 C23.5234221,10.6242816 23.5125094,10.400346 23.5097363,10.3329527 C23.3878126,10.2171435 23.2405271,10.1182729 23.2035198,9.86806921 C23.1627761,9.36813173 23.2308012,8.83025277 23.3095948,8.18137647 C23.3530879,7.87820821 23.4253489,7.62636119 23.4376853,7.29730313 C23.4404905,7.22250027 23.4359881,7.11395562 23.4356871,7.03307447 C23.4356256,6.46255734 23.0163161,5.99994787 22.4990251,6 L22.4990219,6 Z M21.3261929,13.2116545 L21.0479963,18.088958 L21.0279821,18.0988914 C21.0093232,18.5352207 20.6475558,18.8836306 20.2033993,18.8836306 C20.0214589,18.8836306 19.8535238,18.8256329 19.7170556,18.7266828 L19.7090499,18.7306561 L15.6802023,15.8956614 C16.9184311,14.6870501 18.5022231,13.7938863 20.327487,13.3825091 C20.660906,13.3073629 20.9941765,13.2516042 21.3261929,13.2116545 Z M23.6738523,13.2116545 C25.8048606,13.4718188 27.7756321,14.4296537 29.2858189,15.8976481 L25.2829896,18.7147627 L25.2689797,18.7088058 C24.9136918,18.9663872 24.4131153,18.9024764 24.136179,18.557818 C24.0227344,18.4166231 23.9632107,18.2506045 23.9560517,18.0830011 L23.9520489,18.0810176 L23.6738523,13.2116545 Z M14.2191696,17.7174485 L17.8977697,20.9835531 L17.8937668,21.00342 C18.2258012,21.2899452 18.2747644,21.7871541 17.9978404,22.1318551 C17.8844034,22.2730558 17.7325598,22.367761 17.5695377,22.4119773 L17.5655348,22.4278707 L12.850202,23.7788142 C12.6102064,21.6004467 13.1274251,19.4829003 14.2191696,17.7174485 Z M30.7528558,17.719432 C31.2994245,18.5988206 31.7133138,19.5810093 31.9597088,20.6458141 C32.2031487,21.6978513 32.2642434,22.7480075 32.1638531,23.7629176 L27.4245033,22.4080007 L27.4205004,22.3881339 C26.9961045,22.2729992 26.7352846,21.8444748 26.8340859,21.4146599 C26.8745645,21.2385846 26.9687232,21.0896299 27.0962713,20.9795766 L27.0942731,20.9696432 L30.752859,17.719432 L30.7528558,17.719432 Z M21.7444886,21.2358585 L23.2515538,21.2358585 L24.1882158,22.3980673 L23.8519782,23.8483449 L22.4990219,24.4940165 L21.1420628,23.8463582 L20.8058251,22.3960806 L21.7444886,21.2358585 Z M26.5759035,25.2131952 C26.6399468,25.2099848 26.7037109,25.2157128 26.7660378,25.227102 L26.7740435,25.2171686 L31.6514909,26.0356814 C30.9376744,28.0263746 29.5717611,29.7509465 27.746731,30.9050382 L25.8533928,26.3654706 L25.8593938,26.3575239 C25.6854719,25.9563737 25.8595219,25.4859549 26.2596767,25.2946492 C26.3621268,25.2456713 26.4691618,25.2185507 26.5759003,25.2131952 L26.5759035,25.2131952 Z M18.3841134,25.2330621 C18.7563279,25.2382433 19.0901882,25.4946842 19.1766736,25.8707869 C19.2171624,26.0468596 19.1974563,26.221317 19.1306411,26.375404 L19.144651,26.3932841 L17.2713269,30.8871581 C15.5198707,29.7715267 14.1248296,28.1010974 13.3785754,26.0515781 L18.2139932,25.2370386 L18.2219988,25.246972 C18.2760857,25.237092 18.3309398,25.2323246 18.3841134,25.2330652 L18.3841134,25.2330621 Z M22.4690007,27.2018668 C22.5986571,27.1971369 22.7302189,27.2235442 22.8552737,27.2833207 C23.0191982,27.3616773 23.1458298,27.4850525 23.2255354,27.6329767 L23.2435481,27.6329767 L25.6272329,31.9083156 C25.3178757,32.0112563 24.9998397,32.0992329 24.6745596,32.1725443 C22.8515411,32.5834155 21.0343149,32.4589233 19.3888236,31.9023556 L21.7665041,27.6349634 L21.770507,27.6349634 C21.9131787,27.3702159 22.1837571,27.2122693 22.4690007,27.2018668 Z" id="path3059" stroke="#FFFFFF" stroke-width="0.25" fill="#FFFFFF" fill-rule="nonzero" mask="url(#mask-2)"></path>
                    </g>
                </g>
                <rect id="Rectangle-2" fill="#FFFFFF" fill-rule="nonzero" style="mix-blend-mode: color;" x="97" y="3" width="50" height="49"></rect>
            </g>
            <g id="Gateway-API" transform="translate(0.000000, 100.000000)">
                <g id="Rectangle-9">
                    <g id="path-5-link" fill="#000000" fill-rule="nonzero">
                        <rect id="path-5" x="0" y="0" width="770" height="50" rx="4"></rect>
                    </g>
                    <g id="path-5-link" fill="#D0D0D0">
                        <rect id="path-5" x="0" y="0" width="770" height="50" rx="4"></rect>
                    </g>
                </g>
                <g transform="translate(340.000000, 16.000000)" fill="#4A4A4A" font-family="Helvetica" font-size="15" font-weight="normal">
                    <text>
                        <tspan x="0.126465" y="15">Gateway API</tspan>
                    </text>
                </g>
            </g>
            <g id="Kube" transform="translate(589.000000, 288.000000)">
                <g id="Rectangle-9">
                    <g id="path-7-link" fill="#000000" fill-rule="nonzero">
                        <rect id="path-7" x="0" y="0" width="150" height="50" rx="4"></rect>
                    </g>
                    <g id="path-7-link" fill="#F4F4F4">
                        <rect id="path-7" x="0" y="0" width="150" height="50" rx="4"></rect>
                    </g>
                </g>
                <g transform="translate(57.000000, 15.000000)" fill="#4A4A4A" font-family=".AppleSystemUIFont" font-size="15" font-weight="normal">
                    <text>
                        <tspan x="0.2570801" y="15">Kube</tspan>
                    </text>
                </g>
            </g>
            <g id="Mail" transform="translate(349.000000, 382.000000)">
                <g id="Rectangle-9">
                    <g id="path-9-link" fill="#000000" fill-rule="nonzero">
                        <rect id="path-9" x="0" y="0" width="150" height="50" rx="4"></rect>
                    </g>
                    <g id="path-9-link" fill="#F4F4F4">
                        <rect id="path-9" x="0" y="0" width="150" height="50" rx="4"></rect>
                    </g>
                </g>
                <g transform="translate(61.000000, 15.000000)" fill="#4A4A4A" font-family=".AppleSystemUIFont" font-size="15" font-weight="normal">
                    <text>
                        <tspan x="0.0400391" y="15">Mail</tspan>
                    </text>
                </g>
            </g>
            <g id="Users" transform="translate(232.000000, 200.000000)">
                <g id="Rectangle-9">
                    <g id="path-13-link" fill="#000000" fill-rule="nonzero">
                        <rect id="path-13" x="0" y="0" width="150" height="50" rx="4"></rect>
                    </g>
                    <g id="path-13-link" fill="#F4F4F4">
                        <rect id="path-13" x="0" y="0" width="150" height="50" rx="4"></rect>
                    </g>
                </g>
                <g transform="translate(55.000000, 15.000000)" fill="#4A4A4A" font-family="Helvetica" font-size="15" font-weight="normal">
                    <text>
                        <tspan x="0.012207" y="15">Users</tspan>
                    </text>
                </g>
            </g>
            <g id="Web-UI" transform="translate(131.000000, 0.000000)">
                <g id="Rectangle-9">
                    <g id="path-15-link" fill="#000000" fill-rule="nonzero">
                        <rect id="path-15" x="0" y="0" width="150" height="50" rx="4"></rect>
                    </g>
                    <g id="path-15-link" fill="#9B9B9B">
                        <rect id="path-15" x="0" y="0" width="150" height="50" rx="4"></rect>
                    </g>
                </g>
                <g id="UI" transform="translate(53.000000, 15.000000)" fill="#FFFFFF" font-family="OpenSans, Open Sans" font-size="15" font-weight="normal">
                    <text id="Web-UI">
                        <tspan x="0" y="16">Web UI</tspan>
                    </text>
                </g>
            </g>
            <g id="PostgreSQL" transform="translate(69.000000, 343.000000)" fill="#4A4A4A" font-family="Helvetica" font-size="15" font-weight="normal">
                <g id="PostreSQL">
                    <text>
                        <tspan x="0" y="15">PostreSQL</tspan>
                    </text>
                </g>
            </g>
            <g id="Permissions" transform="translate(33.000000, 200.000000)">
                <g id="Rectangle-9">
                    <g id="path-17-link" fill="#000000" fill-rule="nonzero">
                        <rect id="path-17" x="0" y="0" width="150" height="50" rx="4"></rect>
                    </g>
                    <g id="path-17-link" fill="#F4F4F4">
                        <rect id="path-17" x="0" y="0" width="150" height="50" rx="4"></rect>
                    </g>
                </g>
                <g id="Resource-Manager" transform="translate(33.000000, 16.000000)" fill="#4A4A4A" font-family="Helvetica" font-size="15" font-weight="normal">
                    <text id="Permissions">
                        <tspan x="0" y="15">Permissions</tspan>
                    </text>
                </g>
            </g>
            <g id="chkit" transform="translate(477.000000, 0.000000)">
                <g id="Rectangle-9">
                    <g id="path-19-link" fill="#000000" fill-rule="nonzero">
                        <rect id="path-19" x="0" y="0" width="150" height="50" rx="4"></rect>
                    </g>
                    <g id="path-19-link" fill="#9B9B9B">
                        <rect id="path-19" x="0" y="0" width="150" height="50" rx="4"></rect>
                    </g>
                </g>
                <g transform="translate(58.000000, 15.000000)" fill="#FFFFFF" font-family="OpenSans, Open Sans" font-size="15" font-weight="normal">
                    <text>
                        <tspan x="0.0192871" y="16">chkit</tspan>
                    </text>
                </g>
            </g>
            <g id="Auth" transform="translate(477.000000, 200.000000)">
                <g id="Rectangle-9">
                    <g id="path-21-link" fill="#000000" fill-rule="nonzero">
                        <rect id="path-21" x="0" y="0" width="150" height="50" rx="4"></rect>
                    </g>
                    <g id="path-21-link" fill="#F4F4F4">
                        <rect id="path-21" x="0" y="0" width="150" height="50" rx="4"></rect>
                    </g>
                </g>
                <g transform="translate(58.000000, 15.000000)" fill="#4A4A4A" font-family=".AppleSystemUIFont" font-size="15" font-weight="normal">
                    <text>
                        <tspan x="0.8574219" y="15">Auth</tspan>
                    </text>
                </g>
            </g>
            <g id="001-cylinder-2" transform="translate(81.000000, 265.000000)">
                <rect id="Rectangle-path" fill="#B9B7BA" fill-rule="nonzero" x="0" y="41.5625" width="4.375" height="4.375"></rect>
                <g id="Rectangle" transform="translate(2.000000, 14.000000)">
                    <g id="path-23-link" fill="#F4F4F4">
                        <rect id="path-23" x="0.1" y="0" width="47.6" height="46.2"></rect>
                    </g>
                    <rect id="Rectangle-path" stroke="#979797" x="0.6" y="0.5" width="46.6" height="45.2"></rect>
                </g>
                <ellipse id="Oval-2" fill="#F4F4F4" fill-rule="nonzero" cx="25.2" cy="60.55" rx="22.4" ry="5.25"></ellipse>
                <ellipse id="Oval" fill="#F4F4F4" fill-rule="nonzero" cx="26.25" cy="12.25" rx="22.05" ry="10.15"></ellipse>
                <polygon id="Rectangle-path" fill="#B9B7BA" fill-rule="nonzero" points="0 28.4079653 4.375 28.4079653 4.375 50.8461134 0 51.6539951"></polygon>
                <path d="M26.25,0 C11.2853125,0 0,5.6415625 0,13.125 L0,28.4375 L4.375,28.4375 L4.375,20.575625 C8.999375,24.049375 16.9071875,26.25 26.25,26.25 C35.5928125,26.25 43.500625,24.049375 48.125,20.575625 L48.125,56.875 C48.125,61.0071875 38.77125,65.625 26.25,65.625 C13.72875,65.625 4.375,61.0071875 4.375,56.875 L4.375,50.3125 L0,50.3125 L0,56.875 C0,64.3584375 11.2853125,70 26.25,70 C41.2146875,70 52.5,64.3584375 52.5,56.875 L52.5,13.125 C52.5,5.6415625 41.2146875,0 26.25,0 Z M26.25,21.875 C13.72875,21.875 4.375,17.2571875 4.375,13.125 C4.375,8.9928125 13.72875,4.375 26.25,4.375 C38.77125,4.375 48.125,8.9928125 48.125,13.125 C48.125,17.2571875 38.77125,21.875 26.25,21.875 Z" id="Shape" fill="#B9B7BA" fill-rule="nonzero"></path>
            </g>
            <g id="001-cylinder-2" transform="translate(281.000000, 265.000000)">
                <rect id="Rectangle-path" fill="#B9B7BA" fill-rule="nonzero" x="0" y="41.5625" width="4.375" height="4.375"></rect>
                <g id="Rectangle" transform="translate(2.000000, 14.000000)">
                    <g id="path-24-link" fill="#F4F4F4">
                        <rect id="path-24" x="0.1" y="0" width="47.6" height="46.2"></rect>
                    </g>
                    <rect id="Rectangle-path" stroke="#979797" x="0.6" y="0.5" width="46.6" height="45.2"></rect>
                </g>
                <ellipse id="Oval-2" fill="#F4F4F4" fill-rule="nonzero" cx="25.2" cy="60.55" rx="22.4" ry="5.25"></ellipse>
                <ellipse id="Oval" fill="#F4F4F4" fill-rule="nonzero" cx="26.25" cy="12.25" rx="22.05" ry="10.15"></ellipse>
                <polygon id="Rectangle-path" fill="#B9B7BA" fill-rule="nonzero" points="0 28.4079653 4.375 28.4079653 4.375 50.8461134 0 51.6539951"></polygon>
                <path d="M26.25,0 C11.2853125,0 0,5.6415625 0,13.125 L0,28.4375 L4.375,28.4375 L4.375,20.575625 C8.999375,24.049375 16.9071875,26.25 26.25,26.25 C35.5928125,26.25 43.500625,24.049375 48.125,20.575625 L48.125,56.875 C48.125,61.0071875 38.77125,65.625 26.25,65.625 C13.72875,65.625 4.375,61.0071875 4.375,56.875 L4.375,50.3125 L0,50.3125 L0,56.875 C0,64.3584375 11.2853125,70 26.25,70 C41.2146875,70 52.5,64.3584375 52.5,56.875 L52.5,13.125 C52.5,5.6415625 41.2146875,0 26.25,0 Z M26.25,21.875 C13.72875,21.875 4.375,17.2571875 4.375,13.125 C4.375,8.9928125 13.72875,4.375 26.25,4.375 C38.77125,4.375 48.125,8.9928125 48.125,13.125 C48.125,17.2571875 38.77125,21.875 26.25,21.875 Z" id="Shape" fill="#B9B7BA" fill-rule="nonzero"></path>
            </g>
            <text id="PostreSQL" fill="#4A4A4A" font-family="Helvetica" font-size="15" font-weight="normal">
                <tspan x="274" y="356">PostreSQL</tspan>
            </text>
            <g id="Resource" transform="translate(132.000000, 380.000000)">
                <g id="Rectangle-9">
                    <g id="path-25-link" fill="#000000" fill-rule="nonzero">
                        <rect id="path-25" x="0" y="0" width="150" height="50" rx="4"></rect>
                    </g>
                    <g id="path-25-link" fill="#F4F4F4">
                        <rect id="path-25" x="0" y="0" width="150" height="50" rx="4"></rect>
                    </g>
                </g>
                <g id="Archive" transform="translate(44.000000, 16.000000)" fill="#4A4A4A" font-family="Helvetica" font-size="15" font-weight="normal">
                    <text id="Resource">
                        <tspan x="0" y="15">Resource</tspan>
                    </text>
                </g>
            </g>
            <g id="MongoDB" transform="translate(173.000000, 515.000000)" fill="#4A4A4A" font-family=".AppleSystemUIFont" font-size="15" font-weight="normal">
                <text>
                    <tspan x="0.081543" y="15">MongoDB</tspan>
                </text>
            </g>
            <g id="001-cylinder-2" transform="translate(181.000000, 445.000000)">
                <rect id="Rectangle-path" fill="#B9B7BA" fill-rule="nonzero" x="0" y="41.5625" width="4.375" height="4.375"></rect>
                <g id="Rectangle" transform="translate(2.000000, 14.000000)">
                    <g id="path-27-link" fill="#F4F4F4">
                        <rect id="path-27" x="0.1" y="0" width="47.6" height="46.2"></rect>
                    </g>
                    <rect id="Rectangle-path" stroke="#979797" x="0.6" y="0.5" width="46.6" height="45.2"></rect>
                </g>
                <ellipse id="Oval-2" fill="#F4F4F4" fill-rule="nonzero" cx="25.2" cy="60.55" rx="22.4" ry="5.25"></ellipse>
                <ellipse id="Oval" fill="#F4F4F4" fill-rule="nonzero" cx="26.25" cy="12.25" rx="22.05" ry="10.15"></ellipse>
                <polygon id="Rectangle-path" fill="#B9B7BA" fill-rule="nonzero" points="0 28.4079653 4.375 28.4079653 4.375 50.8461134 0 51.6539951"></polygon>
                <path d="M26.25,0 C11.2853125,0 0,5.6415625 0,13.125 L0,28.4375 L4.375,28.4375 L4.375,20.575625 C8.999375,24.049375 16.9071875,26.25 26.25,26.25 C35.5928125,26.25 43.500625,24.049375 48.125,20.575625 L48.125,56.875 C48.125,61.0071875 38.77125,65.625 26.25,65.625 C13.72875,65.625 4.375,61.0071875 4.375,56.875 L4.375,50.3125 L0,50.3125 L0,56.875 C0,64.3584375 11.2853125,70 26.25,70 C41.2146875,70 52.5,64.3584375 52.5,56.875 L52.5,13.125 C52.5,5.6415625 41.2146875,0 26.25,0 Z M26.25,21.875 C13.72875,21.875 4.375,17.2571875 4.375,13.125 C4.375,8.9928125 13.72875,4.375 26.25,4.375 C38.77125,4.375 48.125,8.9928125 48.125,13.125 C48.125,17.2571875 38.77125,21.875 26.25,21.875 Z" id="Shape" fill="#B9B7BA" fill-rule="nonzero"></path>
            </g>
        </g>
    </g>
</svg>