<svg id="Слой_1" data-name="Слой 1" xmlns="http://www.w3.org/2000/svg" viewBox="0 0 382.63 71.81">
  <defs>
    <style>
      .cls-1 {
        fill: #1a1a1a;
      }

      .cls-2 {
        fill: #29abe2;
      }

      .cls-3 {
        fill: #ffcb31;
      }

      .cls-4 {
        fill: #333;
      }
    </style>
  </defs>
  <title>Копия Containerum_logo_new</title>
  <g>
    <g>
      <path class="cls-1" d="M3347.34,2890c0-12.12,6.17-20.7,15.85-20.7,7.36,0,10.81,5,12.79,9.66l-6.34,2.88c-1.13-3.18-3.28-5.4-6.45-5.4-5,0-8.09,5.7-8.09,13.56s3.11,13.56,8.09,13.56c3.28,0,5.49-2.52,6.51-5.82l6.28,2.88c-1.87,4.8-5.32,10.08-12.79,10.08C3353.51,2910.71,3347.34,2902.13,3347.34,2890Z" transform="translate(-3248.36 -2854.18)"/>
      <path class="cls-1" d="M3378.75,2895.47c0-8.1,4.3-15.18,12.34-15.18s12.39,7.08,12.39,15.18-4.24,15.24-12.39,15.24S3378.75,2903.63,3378.75,2895.47Zm17.71,0c0-4.74-1.64-8.82-5.38-8.82s-5.32,4.08-5.32,8.82,1.7,8.88,5.32,8.88S3396.47,2900.27,3396.47,2895.47Z" transform="translate(-3248.36 -2854.18)"/>
      <path class="cls-1" d="M3423.58,2890.91c0-3.06-1.3-4.26-3.57-4.26s-4,1.86-5,3.6V2910h-6.79v-29H3415v3.78a10.08,10.08,0,0,1,8-4.5c5,0,7.3,3.12,7.3,7.92V2910h-6.79v-19.08Z" transform="translate(-3248.36 -2854.18)"/>
      <path class="cls-1" d="M3437.67,2903v-15.72h-3.57V2881h3.57v-7.92h6.79V2881h4.47v6.3h-4.47v14c0,1.86.62,3,2,3a2.73,2.73,0,0,0,2-.84l1.42,5.52a7.58,7.58,0,0,1-5.26,1.68C3439.87,2910.71,3437.67,2908.13,3437.67,2903Z" transform="translate(-3248.36 -2854.18)"/>
      <path class="cls-1" d="M3467.49,2907.11a8.86,8.86,0,0,1-7.19,3.6c-4.36,0-8.49-3.42-8.49-9.6,0-6.36,4.13-9.36,8.49-9.36a8.79,8.79,0,0,1,7.19,3.42v-3.78c0-3.12-1.81-5.1-5.09-5.1a9.4,9.4,0,0,0-6.73,3.18l-2.55-4.92a14.84,14.84,0,0,1,10.58-4.26c5.89,0,10.58,2.82,10.58,10.26V2910h-6.79v-2.88Zm0-7.74a5.21,5.21,0,0,0-4.64-2.76c-2.55,0-4.25,1.86-4.25,4.62s1.7,4.62,4.25,4.62a5.21,5.21,0,0,0,4.64-2.76v-3.72Z" transform="translate(-3248.36 -2854.18)"/>
      <path class="cls-1" d="M3479.72,2872.85a4.09,4.09,0,1,1,8.15,0A4.08,4.08,0,1,1,3479.72,2872.85Zm0.68,8.16h6.79v29h-6.79v-29Z" transform="translate(-3248.36 -2854.18)"/>
      <path class="cls-1" d="M3508.64,2890.91c0-3.06-1.3-4.26-3.57-4.26s-4,1.86-5,3.6V2910h-6.79v-29h6.79v3.78a10.08,10.08,0,0,1,8-4.5c5,0,7.3,3.12,7.3,7.92V2910h-6.79v-19.08Z" transform="translate(-3248.36 -2854.18)"/>
      <path class="cls-1" d="M3532.35,2880.29c7.58,0,11.77,6.54,11.77,15.48v2H3527c0.28,4,2.49,7.08,6.62,7.08a8.06,8.06,0,0,0,5.94-2.82l3.11,4.32a12.87,12.87,0,0,1-9.79,4.32c-7.7,0-12.73-6.12-12.73-15.24C3520.12,2887.07,3524.76,2880.29,3532.35,2880.29Zm-5.38,12.6h10.58c-0.06-3-1.36-6.78-5.32-6.78C3528.44,2886.11,3527.08,2889.89,3527,2892.89Z" transform="translate(-3248.36 -2854.18)"/>
      <path class="cls-1" d="M3548.65,2881h6.79v4c1.53-2.58,4.53-4.68,7.47-4.68v7.08a4.75,4.75,0,0,0-1.64-.24,7.4,7.4,0,0,0-5.83,3.54V2910h-6.79v-29Z" transform="translate(-3248.36 -2854.18)"/>
      <path class="cls-1" d="M3582.09,2906.33a9.83,9.83,0,0,1-8,4.38c-5,0-7.3-2.94-7.3-7.8V2881h6.79v19.14c0,3.06,1.36,4.2,3.62,4.2s4-1.74,4.92-3.48V2881h6.79v29h-6.79v-3.66Z" transform="translate(-3248.36 -2854.18)"/>
      <path class="cls-1" d="M3624.2,2890.55c0-2.46-1-3.9-3.11-3.9s-3.91,2-4.7,3.6V2910h-6.79v-19.44c0-2.34-.91-3.9-3.11-3.9s-3.85,2-4.7,3.6V2910H3595v-29h6.79v3.78a9.74,9.74,0,0,1,7.7-4.5c3.45,0,5.89,1.74,6.57,5a9.76,9.76,0,0,1,8-5c4.19,0,6.91,2.34,6.91,7.68v22h-6.79v-19.44Z" transform="translate(-3248.36 -2854.18)"/>
    </g>
    <g>
      <path class="cls-2" d="M3325.94,2888.2v-20.14a4.3,4.3,0,0,0-1.94-3.36l-17.44-10.07a4.3,4.3,0,0,0-3.87,0l-17.44,10.07a4.3,4.3,0,0,0-1.94,3.36v20.14a4.3,4.3,0,0,0,1.94,3.36l17.44,10.07a4.3,4.3,0,0,0,3.88,0l17.44-10.07A4.29,4.29,0,0,0,3325.94,2888.2Z" transform="translate(-3248.36 -2854.18)"/>
      <path class="cls-3" d="M3334.79,2902.66l-10.35-6a2.54,2.54,0,0,0-2.3,0l-10.35,6a2.55,2.55,0,0,0-1.15,2v11.95a2.56,2.56,0,0,0,1.15,2l10.35,6a2.55,2.55,0,0,0,2.3,0l10.35-6a2.55,2.55,0,0,0,1.15-2v-11.95A2.55,2.55,0,0,0,3334.79,2902.66Z" transform="translate(-3248.36 -2854.18)"/>
      <path class="cls-4" d="M3300.83,2904.85l-17.44-10.07a8.05,8.05,0,0,1-3.8-6.58v-20.14a7.66,7.66,0,0,1,1.05-3.72l-1.62-.94a5.67,5.67,0,0,0-5.11,0l-23,13.28a5.67,5.67,0,0,0-2.56,4.43v26.56a5.67,5.67,0,0,0,2.56,4.43l23,13.28a5.67,5.67,0,0,0,5.11,0l23-13.28a5.67,5.67,0,0,0,2.56-4.43v-1.87A7.62,7.62,0,0,1,3300.83,2904.85Z" transform="translate(-3248.36 -2854.18)"/>
    </g>
  </g>
</svg>
