<?xml version="1.0" encoding="UTF-8"?>
<svg width="165px" height="31px" viewBox="0 0 165 31" version="1.1" xmlns="http://www.w3.org/2000/svg" xmlns:xlink="http://www.w3.org/1999/xlink">
    <!-- Generator: Sketch 50.2 (55047) - http://www.bohemiancoding.com/sketch -->
    <title>logo_containerum</title>
    <desc>Created with Sketch.</desc>
    <defs></defs>
    <g id="Page-1" stroke="none" stroke-width="1" fill="none" fill-rule="evenodd">
        <g id="logo_containerum" fill-rule="nonzero">
            <g id="Group" transform="translate(43.000000, 6.000000)" fill="#1A1A1A">
                <path d="M0.419508772,9.13395349 C0.419508772,4.06046512 3.06070175,0.468837209 7.20442105,0.468837209 C10.3550175,0.468837209 11.8318596,2.56186047 12.6794386,4.51255814 L9.96547368,5.71813953 C9.48175439,4.38697674 8.56140351,3.45767442 7.20442105,3.45767442 C5.06407018,3.45767442 3.74133333,5.84372093 3.74133333,9.13395349 C3.74133333,12.424186 5.07263158,14.8102326 7.20442105,14.8102326 C8.60849123,14.8102326 9.55452632,13.7553488 9.99115789,12.3739535 L12.6794386,13.5795349 C11.8789474,15.5888372 10.4021053,17.7990698 7.20442105,17.7990698 C3.06070175,17.8032558 0.419508772,14.2116279 0.419508772,9.13395349 Z" id="Shape"></path>
                <path d="M13.865193,11.4237209 C13.865193,8.03302326 15.7058947,5.06930233 19.1475789,5.06930233 C22.5892632,5.06930233 24.4513684,8.03302326 24.4513684,11.4237209 C24.4513684,14.8144186 22.6363509,17.8032558 19.1475789,17.8032558 C15.658807,17.8032558 13.865193,14.8395349 13.865193,11.4237209 Z M21.4463158,11.4237209 C21.4463158,9.43953488 20.7442807,7.73162791 19.1432982,7.73162791 C17.5423158,7.73162791 16.8659649,9.43953488 16.8659649,11.4237209 C16.8659649,13.407907 17.5936842,15.1409302 19.1432982,15.1409302 C20.6929123,15.1409302 21.4505965,13.4330233 21.4505965,11.4237209 L21.4463158,11.4237209 Z" id="Shape"></path>
                <path d="M33.0555789,9.51488372 C33.0555789,8.23395349 32.4990877,7.73162791 31.5273684,7.73162791 C30.5556491,7.73162791 29.8150877,8.51023256 29.3870175,9.23860465 L29.3870175,17.5060465 L26.4804211,17.5060465 L26.4804211,5.36651163 L29.3827368,5.36651163 L29.3827368,6.94883721 C30.148729,5.81963424 31.4226906,5.11887645 32.8072982,5.06511628 C34.9476491,5.06511628 35.9322105,6.37116279 35.9322105,8.38046512 L35.9322105,17.5060465 L33.025614,17.5060465 L33.025614,9.51906977 L33.0555789,9.51488372 Z" id="Shape"></path>
                <path d="M39.0870877,14.575814 L39.0870877,7.99534884 L37.5588772,7.99534884 L37.5588772,5.36651163 L39.0870877,5.36651163 L39.0870877,2.05116279 L41.9936842,2.05116279 L41.9936842,5.36651163 L43.9071579,5.36651163 L43.9071579,8.00372093 L41.9936842,8.00372093 L41.9936842,13.864186 C41.9936842,14.6427907 42.2590877,15.12 42.8498246,15.12 C43.1726195,15.1234538 43.4824974,14.9961829 43.7059649,14.7683721 L44.3138246,17.0790698 C43.6803895,17.5819892 42.8764491,17.8330833 42.0621754,17.7823256 C40.0288421,17.8032558 39.0870877,16.7232558 39.0870877,14.575814 Z" id="Shape"></path>
                <path d="M51.8521404,16.2962791 C51.1317873,17.2511473 49.9877054,17.8113172 48.7743158,17.8032558 C46.9079298,17.8032558 45.14,16.3716279 45.14,13.7846512 C45.14,11.1223256 46.9079298,9.86651163 48.7743158,9.86651163 C49.9751273,9.83594401 51.118697,10.3678672 51.8521404,11.2981395 L51.8521404,9.71581395 C51.8521404,8.40976744 51.0773333,7.58093023 49.6732632,7.58093023 C48.5665601,7.61810424 47.5244378,8.09963033 46.7923509,8.91209302 L45.7007719,6.85255814 C46.9072459,5.69191717 48.5374517,5.05003481 50.2297544,5.06930233 C52.7510877,5.06930233 54.7587368,6.24976744 54.7587368,9.36418605 L54.7587368,17.5060465 L51.8521404,17.5060465 L51.8521404,16.3004651 L51.8521404,16.2962791 Z M51.8521404,13.0562791 C51.4616551,12.3395831 50.6963039,11.8943977 49.8658947,11.9009302 C48.7743158,11.9009302 48.0465965,12.6795349 48.0465965,13.8348837 C48.0465965,14.9902326 48.7743158,15.7688372 49.8658947,15.7688372 C50.6963039,15.7753697 51.4616551,15.3301843 51.8521404,14.6134884 L51.8521404,13.0562791 Z" id="Shape"></path>
                <path d="M57.0874386,1.95488372 C57.0308481,1.31051229 57.3503991,0.689950456 57.9134847,0.350718207 C58.4765703,0.0114859585 59.1870788,0.0114859585 59.7501644,0.350718207 C60.31325,0.689950456 60.632801,1.31051229 60.5762105,1.95488372 C60.608114,2.58447358 60.2827895,3.18006044 59.7299308,3.50420807 C59.177072,3.82835569 58.4865771,3.82835569 57.9337184,3.50420807 C57.3808596,3.18006044 57.0555351,2.58447358 57.0874386,1.95488372 Z M57.3785263,5.37069767 L60.2851228,5.37069767 L60.2851228,17.5102326 L57.3785263,17.5102326 L57.3785263,5.37069767 Z" id="Shape"></path>
                <path d="M69.4672281,9.51488372 C69.4672281,8.23395349 68.9107368,7.73162791 67.9390175,7.73162791 C66.9672982,7.73162791 66.2267368,8.51023256 65.7986667,9.23860465 L65.7986667,17.5060465 L62.8920702,17.5060465 L62.8920702,5.36651163 L65.7986667,5.36651163 L65.7986667,6.94883721 C66.5646589,5.81963424 67.8386204,5.11887645 69.2232281,5.06511628 C71.3635789,5.06511628 72.3481404,6.37116279 72.3481404,8.38046512 L72.3481404,17.5060465 L69.4415439,17.5060465 L69.4415439,9.51906977 L69.4672281,9.51488372 Z" id="Shape"></path>
                <path d="M79.6167719,5.06930233 C82.8615439,5.06930233 84.6551579,7.80697674 84.6551579,11.5493023 L84.6551579,12.3865116 L77.3265965,12.3865116 C77.4464561,14.0609302 78.3924912,15.3502326 80.1604211,15.3502326 C81.1410622,15.3280908 82.0657109,14.8988228 82.7031579,14.1697674 L84.0344561,15.9781395 C82.9721439,17.1471766 81.4427787,17.8071118 79.8436491,17.7865116 C76.5475088,17.7865116 74.3943158,15.2246512 74.3943158,11.4069767 C74.3814737,7.90744186 76.3677193,5.06930233 79.6167719,5.06930233 Z M77.3137544,10.3437209 L81.8427368,10.3437209 C81.8170526,9.08790698 81.2605614,7.5055814 79.5654035,7.5055814 C77.9430175,7.5055814 77.3608421,9.08790698 77.3265965,10.3437209 L77.3137544,10.3437209 Z" id="Shape"></path>
                <path d="M86.5943158,5.36651163 L89.5009123,5.36651163 L89.5009123,7.04093023 C90.1558596,5.96093023 91.4400702,5.08186047 92.6985965,5.08186047 L92.6985965,8.0455814 C92.4724143,7.97211798 92.2347857,7.93811201 91.9965614,7.94511628 C90.9676073,8.01237616 90.0365385,8.56522397 89.5009123,9.42697674 L89.5009123,17.5060465 L86.5943158,17.5060465 L86.5943158,5.36651163 Z" id="Shape"></path>
                <path d="M100.908982,15.9697674 C100.144022,17.0931415 98.864348,17.7782705 97.4844211,17.8032558 C95.3440702,17.8032558 94.3595088,16.5725581 94.3595088,14.5381395 L94.3595088,5.36651163 L97.2661053,5.36651163 L97.2661053,13.3786047 C97.2661053,14.6595349 97.8482807,15.1367442 98.8157193,15.1367442 C99.7831579,15.1367442 100.528,14.4083721 100.921825,13.68 L100.921825,5.36651163 L103.828421,5.36651163 L103.828421,17.5060465 L100.921825,17.5060465 L100.921825,15.9739535 L100.908982,15.9697674 Z" id="Shape"></path>
                <path d="M118.935018,9.36418605 C118.935018,8.3344186 118.506947,7.73162791 117.603719,7.73162791 C116.700491,7.73162791 115.929965,8.56883721 115.591789,9.23860465 L115.591789,17.5060465 L112.685193,17.5060465 L112.685193,9.36837209 C112.685193,8.38883721 112.295649,7.73581395 111.353895,7.73581395 C110.41214,7.73581395 109.705825,8.57302326 109.341965,9.2427907 L109.341965,17.5060465 L106.435368,17.5060465 L106.435368,5.36651163 L109.341965,5.36651163 L109.341965,6.94883721 C110.064899,5.83701848 111.292686,5.13534644 112.638105,5.06511628 C114.114947,5.06511628 115.159439,5.79348837 115.450526,7.15813953 C116.148534,5.93147368 117.441666,5.14113772 118.875088,5.06511628 C120.668702,5.06511628 121.833053,6.04465116 121.833053,8.28 L121.833053,17.4893023 L118.926456,17.4893023 L118.926456,9.35162791 L118.935018,9.36418605 Z" id="Shape"></path>
            </g>
            <g id="Group">
                <path d="M33.5510112,14.8715068 L33.5510112,6.31890411 C33.5185966,5.73938681 33.2111093,5.20971118 32.7226966,4.89205479 L25.2764045,0.615753425 C24.7567419,0.355309706 24.1437076,0.355309706 23.6240449,0.615753425 L16.1777528,4.89205479 C15.6893401,5.20971118 15.3818528,5.73938681 15.3494382,6.31890411 L15.3494382,14.8715068 C15.3818528,15.4510241 15.6893401,15.9806998 16.1777528,16.2983562 L23.6240449,20.5746575 C24.1448694,20.8365301 24.7598497,20.8365301 25.2806742,20.5746575 L32.7269663,16.2983562 C33.2142663,15.9802401 33.5202416,15.4504382 33.5510112,14.8715068 Z" id="Shape" fill="#29ABE2"></path>
                <path d="M37.3296629,21.0120548 L32.9105618,18.4641096 C32.6019732,18.3082612 32.2371279,18.3082612 31.9285393,18.4641096 L27.5094382,21.0120548 C27.219001,21.2011247 27.0366147,21.516603 27.018427,21.8613699 L27.018427,26.9360274 C27.0372922,27.2805949 27.219515,27.5957905 27.5094382,27.7853425 L31.9285393,30.3332877 C32.2372923,30.4884511 32.6018088,30.4884511 32.9105618,30.3332877 L37.3296629,27.7853425 C37.6201001,27.5962726 37.8024864,27.2807942 37.8206742,26.9360274 L37.8206742,21.8613699 C37.8024864,21.516603 37.6201001,21.2011247 37.3296629,21.0120548 Z" id="Shape" fill="#FFCB31"></path>
                <path d="M22.8298876,21.9420548 L15.3835955,17.6657534 C14.4070158,17.0627694 13.7981434,16.0141598 13.7611236,14.8715068 L13.7611236,6.31890411 C13.7723272,5.76286987 13.9266797,5.21897822 14.2094382,4.73917808 L13.5177528,4.34 C12.8317097,3.99557824 12.0219982,3.99557824 11.3359551,4.34 L1.51573034,9.97945205 C0.871456861,10.3980909 0.465691135,11.096459 0.422696629,11.8606849 L0.422696629,23.139589 C0.465691135,23.903815 0.871456861,24.602183 1.51573034,25.0208219 L11.3359551,30.660274 C12.0219982,31.0046957 12.8317097,31.0046957 13.5177528,30.660274 L23.3379775,25.0208219 C23.982251,24.602183 24.3880167,23.903815 24.4310112,23.139589 L24.4310112,22.3454795 C23.8712975,22.3502285 23.3198182,22.2112759 22.8298876,21.9420548 Z" id="Shape" fill="#333333"></path>
            </g>
        </g>
    </g>
</svg>